<svg width="512" height="512" viewBox="0 0 512 512" fill="none" xmlns="http://www.w3.org/2000/svg">
<g clip-path="url(#clip0_1_35)">
<path d="M468.523 274.667C464.409 323.303 443.791 369.071 410.089 404.378C376.386 439.685 331.626 462.408 283.233 468.777C234.841 475.147 185.725 464.78 144.035 439.396C102.344 414.013 70.5852 375.139 54.0265 329.224C37.4678 283.308 37.1049 233.112 52.9979 186.962C68.8909 140.812 100.085 101.482 141.404 75.4989C182.723 49.5153 231.683 38.4393 280.163 44.1084C328.642 49.7775 373.727 71.851 407.936 106.667H341.333C335.675 106.667 330.249 108.914 326.248 112.915C322.248 116.916 320 122.342 320 128C320 133.658 322.248 139.084 326.248 143.085C330.249 147.086 335.675 149.333 341.333 149.333H429.717C440.222 149.328 450.296 145.152 457.724 137.724C465.152 130.296 469.328 120.222 469.333 109.717V21.3333C469.333 15.6754 467.086 10.2492 463.085 6.24839C459.084 2.24761 453.658 0 448 0C442.342 0 436.916 2.24761 432.915 6.24839C428.914 10.2492 426.667 15.6754 426.667 21.3333V65.664C383.758 27.3222 329.171 4.57565 271.733 1.10317C214.294 -2.36931 157.364 13.6354 110.149 46.5287C62.9345 79.422 28.196 127.281 11.5522 182.364C-5.09166 237.448 -2.66759 296.535 18.4323 350.07C39.5323 403.605 78.0742 448.457 127.825 477.373C177.575 506.288 235.625 517.575 292.586 509.41C349.547 501.244 402.088 474.103 441.711 432.375C481.334 390.647 505.723 336.773 510.933 279.467C511.209 276.496 510.863 273.5 509.916 270.671C508.97 267.841 507.445 265.239 505.438 263.032C503.431 260.824 500.987 259.059 498.26 257.848C495.533 256.637 492.584 256.008 489.6 256C484.396 255.937 479.354 257.814 475.458 261.265C471.562 264.715 469.089 269.493 468.523 274.667Z" fill="#F898A8"/>
</g>
<defs>
<clipPath id="clip0_1_35">
<rect width="512" height="512" fill="white"/>
</clipPath>
</defs>
</svg>
