<svg width="512" height="512" viewBox="0 0 512 512" fill="none" xmlns="http://www.w3.org/2000/svg">
<path d="M437.205 169.984L233.685 20.6507C217.79 9.0109 198.981 2.00096 179.344 0.398164C159.708 -1.20463 140.011 2.66234 122.438 11.5703C104.865 20.4783 90.103 34.0791 79.7879 50.8648C69.4728 67.6504 64.0082 86.965 64 106.667V405.333C64.0035 425.044 69.4684 444.368 79.7883 461.161C90.1081 477.955 104.879 491.56 122.462 500.467C140.045 509.375 159.753 513.236 179.397 511.623C199.042 510.01 217.855 502.985 233.749 491.328L437.269 341.995C450.779 332.087 461.765 319.137 469.338 304.193C476.91 289.249 480.856 272.732 480.856 255.979C480.856 239.226 476.91 222.708 469.338 207.764C461.765 192.82 450.779 179.87 437.269 169.963L437.205 169.984ZM411.947 307.584L208.427 456.917C198.891 463.885 187.613 468.079 175.842 469.034C164.07 469.989 152.264 467.668 141.729 462.328C131.195 456.988 122.344 448.837 116.156 438.778C109.967 428.719 106.683 417.144 106.667 405.333V106.667C106.548 94.8341 109.771 83.2082 115.963 73.1248C122.156 63.0414 131.068 54.9097 141.675 49.664C150.696 45.075 160.673 42.6777 170.795 42.6667C184.36 42.7185 197.551 47.1229 208.427 55.232L411.947 204.565C420.043 210.511 426.625 218.279 431.163 227.24C435.7 236.201 438.064 246.105 438.064 256.149C438.064 266.194 435.7 276.097 431.163 285.059C426.625 294.02 420.043 301.788 411.947 307.733V307.584Z" fill="#F898A8"/>
</svg>
