<svg width="512" height="512" viewBox="0 0 512 512" fill="none" xmlns="http://www.w3.org/2000/svg">
<g clip-path="url(#clip0_1_37)">
<path d="M405.333 0H106.667C78.3769 0 51.2458 11.2381 31.2419 31.2419C11.2381 51.2458 0 78.3769 0 106.667L0 405.333C0 419.341 2.75901 433.212 8.11952 446.153C13.48 459.094 21.337 470.853 31.2419 480.758C51.2458 500.762 78.3769 512 106.667 512H405.333C419.341 512 433.212 509.241 446.153 503.881C459.094 498.52 470.853 490.663 480.758 480.758C490.663 470.853 498.52 459.094 503.881 446.153C509.241 433.212 512 419.341 512 405.333V106.667C512 92.659 509.241 78.7885 503.881 65.8471C498.52 52.9057 490.663 41.1469 480.758 31.2419C470.853 21.337 459.094 13.48 446.153 8.11952C433.212 2.75901 419.341 0 405.333 0ZM469.333 405.333C469.333 422.307 462.591 438.586 450.588 450.588C438.586 462.591 422.307 469.333 405.333 469.333H106.667C89.6928 469.333 73.4142 462.591 61.4118 450.588C49.4095 438.586 42.6667 422.307 42.6667 405.333V106.667C42.6667 89.6928 49.4095 73.4142 61.4118 61.4118C73.4142 49.4095 89.6928 42.6667 106.667 42.6667H405.333C422.307 42.6667 438.586 49.4095 450.588 61.4118C462.591 73.4142 469.333 89.6928 469.333 106.667V405.333Z" fill="#F898A8"/>
</g>
<defs>
<clipPath id="clip0_1_37">
<rect width="512" height="512" fill="white"/>
</clipPath>
</defs>
</svg>
