<svg width="512" height="512" viewBox="0 0 512 512" fill="none" xmlns="http://www.w3.org/2000/svg">
<path d="M469.333 448C457.536 448 448 438.443 448 426.667V85.3333C448 73.5573 457.536 64 469.333 64C481.131 64 490.667 73.5573 490.667 85.3333V426.667C490.667 438.443 481.131 448 469.333 448ZM384 448C372.203 448 362.667 438.443 362.667 426.667V85.3333C362.667 73.5573 372.203 64 384 64C395.797 64 405.333 73.5573 405.333 85.3333V426.667C405.333 438.443 395.797 448 384 448ZM92.3093 442.219C81.4507 442.219 70.4853 439.616 60.1173 434.389C35.8186 422.059 21.3333 398.485 21.3333 371.285V140.736C21.3333 113.536 35.8186 89.9413 60.096 77.632C83.968 65.536 112.405 67.8827 133.909 83.712L291.093 198.955C309.44 212.416 319.979 233.216 319.979 256C319.979 278.784 309.44 299.584 291.072 313.045L133.888 428.309C121.344 437.525 106.901 442.219 92.3093 442.219ZM92.2453 112.512C87.872 112.512 83.5413 113.579 79.3813 115.691C69.6106 120.64 64 129.771 64 140.736V371.285C64 382.251 69.6106 391.36 79.3813 396.331C89.1733 401.28 99.84 400.384 108.651 393.941L265.856 278.656C273.259 273.237 277.333 265.195 277.333 256.021C277.333 246.848 273.259 238.805 265.856 233.387L108.672 118.101C103.701 114.432 98.0053 112.512 92.2453 112.512Z" fill="#F898A8"/>
</svg>
