<svg width="512" height="512" viewBox="0 0 512 512" fill="none" xmlns="http://www.w3.org/2000/svg">
<g clip-path="url(#clip0_1_28)">
<path d="M366.293 512C363.486 512.016 360.703 511.478 358.103 510.416C355.504 509.355 353.14 507.791 351.147 505.813L176.853 331.52C166.92 321.612 159.039 309.841 153.661 296.882C148.284 283.923 145.516 270.03 145.516 256C145.516 241.97 148.284 228.077 153.661 215.118C159.039 202.159 166.92 190.388 176.853 180.48L351.147 6.18667C353.136 4.19759 355.497 2.61975 358.096 1.54327C360.695 0.466781 363.48 -0.0872803 366.293 -0.0872803C369.106 -0.0872803 371.892 0.46678 374.491 1.54327C377.09 2.61975 379.451 4.19759 381.44 6.18667C383.429 8.17576 385.007 10.5372 386.083 13.136C387.16 15.7349 387.714 18.5203 387.714 21.3333C387.714 24.1463 387.16 26.9318 386.083 29.5307C385.007 32.1295 383.429 34.4909 381.44 36.48L207.147 210.773C195.162 222.773 188.43 239.04 188.43 256C188.43 272.96 195.162 289.227 207.147 301.227L381.44 475.52C383.44 477.503 385.027 479.863 386.11 482.462C387.193 485.062 387.75 487.85 387.75 490.667C387.75 493.483 387.193 496.271 386.11 498.871C385.027 501.471 383.44 503.83 381.44 505.813C379.447 507.791 377.083 509.355 374.483 510.416C371.884 511.478 369.101 512.016 366.293 512Z" fill="#F898A8"/>
</g>
<defs>
<clipPath id="clip0_1_28">
<rect width="512" height="512" fill="white"/>
</clipPath>
</defs>
</svg>
